<?xml version="1.0" encoding="utf-8"?>
<!-- Generator: Adobe Illustrator 19.1.0, SVG Export Plug-In . SVG Version: 6.00 Build 0)  -->
<svg version="1.1" id="Layer_2" xmlns="http://www.w3.org/2000/svg" xmlns:xlink="http://www.w3.org/1999/xlink" x="0px" y="0px"
	 viewBox="-251 351 92 92" style="enable-background:new -251 351 92 92;" xml:space="preserve">
<style type="text/css">
<!--	.st0{fill:#9AC4C7;}  -->
	.st1{fill:#F4F2E2;} 
</style>
<g id="circle_2_">
	<g>
		<circle class="st0" cx="-205" cy="397" r="46"/>
	</g>
</g>
<g id="icon_2_">
	<g>
		<path class="st1" d="M-224.5,383.3c2.8,0,5-2.3,5-5.1c0-2.8-2.3-5.1-5-5.1c-2.8,0-5,2.3-5,5.1C-229.5,381-227.2,383.3-224.5,383.3
			z M-180.5,384.7h0.1c1.8,0,3.4-1,4.3-2.5c0.9-1.6,0.9-3.6,0-5.1c-0.9-1.5-2.5-2.5-4.3-2.6c-1.8,0-3.4,0.9-4.3,2.5
			c-0.9,1.6-1,3.5-0.1,5.1S-182.2,384.7-180.5,384.7z M-171,399.8C-171,399.7-171,399.7-171,399.8c0-1.3-0.1-2.5-0.3-3.6
			c-0.2-1.3-0.5-2.5-0.9-3.7c-0.8-2.3-2.2-4.5-4.2-5.9c-0.4-0.3-0.9-0.5-1.3-0.8c-1.7-0.9-3.6-0.9-5.3,0c-2.1,1.1-3.8,2.9-4.9,5.1
			c-0.6,1.1-1,2.3-1.3,3.6c-0.3,1.2-0.5,2.5-0.6,3.8c-0.1,1-0.1,2-0.1,3c-0.1,0-0.2,0-0.3-0.1c-0.2,0-0.4-0.1-0.6-0.2
			c-0.4-0.2-0.8-0.4-1.1-0.6c-0.7-0.4-1.3-0.9-1.9-1.4c-0.7-0.6-1.5-0.9-2.3-0.9l0,0l0,0l0,0c-0.8,0-1.6,0.3-2.3,0.9
			c-0.6,0.5-1.2,1-1.9,1.4c-0.4,0.2-0.7,0.4-1.1,0.6c-0.2,0.1-0.4,0.1-0.6,0.2c-0.2,0-0.3,0.1-0.5,0l-0.4-0.3
			c-0.2-0.1-0.4-0.2-0.6-0.1c-0.2,0-0.3,0.1-0.5,0.2c-0.6,0.5-1.1,0.9-1.9,1c-0.7,0.1-1.4-0.1-2-0.6c-1.2-1.1-2.8-1-4.1,0
			c-0.5,0.4-1.3,0.6-1.9,0.5c-0.5-0.1-1-0.3-1.4-0.6c0,0,0,0,0-0.1l0,0c0,0,0-0.3,0.1-0.8s0.1-1.2,0.1-2.1c0-0.9,0-1.9-0.1-3.1
			c-0.1-1.1-0.3-2.4-0.6-3.6c-0.3-1.2-0.8-2.4-1.5-3.5c-0.3-0.5-0.7-1-1.1-1.5c-0.4-0.4-0.8-0.8-1.2-1.2c-0.8-0.7-1.6-1.1-2.2-1.4
			c-0.3-0.1-0.6-0.2-0.8-0.3c-1.2-0.3-2.6-0.3-3.8-0.1c-0.1,0-0.2,0-0.3,0.1c-0.2,0.1-0.5,0.1-0.8,0.3c-0.6,0.3-1.4,0.7-2.2,1.4
			c-0.4,0.3-0.8,0.7-1.2,1.2c-0.4,0.4-0.8,0.9-1.1,1.5c-0.7,1.1-1.2,2.3-1.5,3.5c-0.3,1.2-0.5,2.4-0.6,3.6c0.1,1.2,0.1,2.2,0.1,3.1
			c0,0.9,0.1,1.6,0.1,2.1c0.1,0.5,0.1,0.8,0.1,0.8l0,0c0.1,0.8,0.8,1.4,1.6,1.3c0.8,0,1.5-0.8,1.4-1.6c0,0,0-0.3,0-0.7
			c0-0.5,0-1.1,0-1.9c0-0.8,0.1-1.7,0.3-2.7c0.2-0.9,0.4-1.9,0.7-2.8c0.2-0.5,0.4-1,0.7-1.5l-1.1,9.3c-0.1,0.5-0.1,0.9,0,1.4
			c0.1,1,0.5,1.9,1,2.6l0.8,16.7c0,0.9,0.8,1.7,1.7,1.7c1,0,1.8-0.7,1.8-1.7l0.6-12.6l0.6,12.6c0,0.9,0.8,1.7,1.7,1.7
			c1,0,1.8-0.7,1.8-1.7l0.7-16.7c0.7-1.1,1.1-2.5,0.9-4l-1.1-9.2c0.2,0.4,0.4,0.9,0.6,1.3c0.3,0.9,0.6,1.9,0.7,2.8
			c0.2,0.9,0.2,1.9,0.3,2.7c0,0.8,0,1.5,0,1.9c0,0.5,0,0.7,0,0.7c0,0.8,0.5,1.5,1.3,1.6c0.1,0,0.2,0,0.3,0c0.5,0.5,1,0.9,1.6,1.2
			c0.7,0.3,1.5,0.5,2.2,0.4v2.9l-1.6,7.6c0,0.2,0,0.4,0.1,0.5c0.1,0.1,0.3,0.2,0.5,0.2h1.3l0.3,6.4c0,0.5,0.5,1,1,1s1-0.4,1-1
			l0.3-6.4h0.1l0.3,6.4c0,0.5,0.5,1,1,1s1-0.4,1-1l0.3-6.4h1.2c0.2,0,0.3-0.1,0.5-0.2c0.1-0.1,0.2-0.3,0.1-0.5l-1.7-7.3v-3
			c0.7,0,1.5-0.1,2.2-0.4c0.5-0.2,0.9-0.5,1.3-0.9l0,0c0.4,0.3,0.8,0.4,1.3,0.4c0.9,0,1.9-0.3,2.7-0.6l-0.3,5.9
			c0,0.7,0.1,1.4,0.4,1.9l0.5,11c0,0.6,0.5,1.1,1.1,1.1c0.6,0,1.1-0.5,1.1-1.1l0.4-8.6l0.4,8.6c0,0.6,0.5,1.1,1.1,1.1
			c0.6,0,1.1-0.5,1.1-1.1l0.5-11c0.3-0.6,0.5-1.2,0.4-1.9l-0.3-5.9c0.9,0.3,1.8,0.6,2.7,0.6c0.4,0,0.8-0.1,1.2-0.3
			c0.1,0,0.2,0.1,0.3,0.1c0.8,0,1.5-0.6,1.5-1.4c0-0.4,0.1-0.8,0.1-1.1c0.1-0.6,0.1-1.2,0.2-1.8c0.2-1.2,0.5-2.4,0.9-3.6
			c0.1-0.3,0.2-0.6,0.4-0.9l0.1,3.6l-2.8,13c-0.1,0.3,0,0.6,0.2,0.8c0.2,0.2,0.5,0.4,0.8,0.4h2.5l0.4,9.2c0,0.9,0.8,1.7,1.7,1.7
			s1.7-0.7,1.7-1.6l0,0l0.5-9.2h0.4l0.4,9.2c0,0.9,0.8,1.7,1.7,1.7c0.9,0,1.7-0.7,1.7-1.6l0,0l0.5-9.2h2.2c0.3,0,0.6-0.1,0.8-0.4
			c0.2-0.2,0.3-0.5,0.2-0.8l-2.8-13.1v-3.5c0.5,1.2,0.8,2.6,1,3.9c0.2,1.1,0.3,2.2,0.4,3.3v0.1c0.1,0.8,0.8,1.4,1.5,1.4
			c0.8,0,1.4-0.7,1.4-1.5C-171,400.9-171,400.4-171,399.8C-171,399.9-171,399.8-171,399.8z M-196.1,397.8L-196.1,397.8L-196.1,397.8
			c0.9,0,1.8-0.4,2.4-1c0.6-0.7,0.9-1.6,0.9-2.5c-0.1-0.9-0.5-1.8-1.1-2.3s-1.3-0.8-2.1-0.8l0,0l0,0l0,0l0,0c-0.8,0-1.5,0.3-2.1,0.8
			c-0.7,0.6-1.1,1.4-1.1,2.3c-0.1,0.9,0.3,1.8,0.9,2.5C-197.9,397.4-197,397.8-196.1,397.8z M-210.9,400c0.3,0.1,0.7,0.2,1,0.2
			c1,0,1.9-0.5,2.4-1.3c0.5-0.8,0.6-1.9,0.2-2.8c-0.4-0.9-1.2-1.6-2.1-1.7c-1-0.2-2,0.2-2.6,0.9c-0.7,0.7-1,1.8-0.7,2.7
			C-212.5,398.9-211.8,399.7-210.9,400z"/>
	</g>
</g>
</svg>
