<?xml version="1.0" encoding="utf-8"?>
<!-- Generator: Adobe Illustrator 19.1.0, SVG Export Plug-In . SVG Version: 6.00 Build 0)  -->
<svg version="1.1" id="Layer_2" xmlns="http://www.w3.org/2000/svg" xmlns:xlink="http://www.w3.org/1999/xlink" x="0px" y="0px"
	 viewBox="-251 351 92 92" style="enable-background:new -251 351 92 92;" xml:space="preserve">
<style type="text/css">
<!--	.st0{fill:#5C1C32;}  -->
	.st1{fill:#F4F2E2;} 
</style>
<g id="circle_3_">
	<g>
		<circle class="st0" cx="-205" cy="397" r="46"/>
	</g>
</g>
<g id="icon_3_">
	<g>
		<path class="st1" d="M-201.4,384.4l-0.8,0.8l-1.1-1c-0.2,0-0.5-0.1-0.7-0.1c-0.5,0.2-1,0.5-1.6,0.8c0-0.2,0-0.5,0-0.7
			c0.2-0.1,0.5-0.3,0.7-0.4c-1.3-0.6-2.3-1.6-2.9-2.8c-0.3,0.2-0.7,0.4-1,0.6c-0.5-0.3-0.9-0.5-1.3-0.7c-0.6,1.3-1.6,2.3-2.9,2.9
			c1,0.5,3.6,1.9,4.3,2.4c0.2,0.1,0.3,0.2,0.5,0.2v10.1c0,0.9,0.1,1.7,0.4,2.5c0,0.1,0,0.2,0,0.2v2.3l0,0v0.1v20
			c0,1.4,1.1,2.5,2.5,2.5c1.4,0,2.5-1.1,2.5-2.5v-20v-0.1h0.4v0.1v20c0,1.4,1.1,2.5,2.5,2.5l0,0c1.4,0,2.5-1.1,2.5-2.5v-20v-0.1l0,0
			v-2.6c0,0,0.4-0.6,0.4-2.7c0-1.1,0.1-5.4,0.1-5.4v-4.6l-3.6-1.9L-201.4,384.4z M-214.4,384.3l-1.1,0.8l-0.8-0.8
			c-1.8,0.8-4,1.8-4,1.9c-0.3,0.1-0.7,0.2-1,0.2c-0.4,0-0.8-0.1-1.1-0.3l0,0c-2.1-1.7-3.9-4.6-4.5-5.8c-0.5-1-1.8-1.5-2.8-1
			c-1.1,0.5-1.5,1.8-1,2.8c0.4,0.8,3.8,7.5,9,9.1c0.3,0.1,0.6,0.2,0.9,0.2c0,1.3,0.1,3.8,0.1,4.6c0,2.1,0.4,2.7,0.4,2.7v2.6l0,0v0.1
			v20c0,1.4,1.1,2.5,2.5,2.5c1.4,0,2.5-1.1,2.5-2.5v-20v-0.1h0.3v0.1v20c0,1.4,1.1,2.5,2.5,2.5s2.5-1.1,2.5-2.5v-20v-0.1l0,0V399
			c0-0.1,0-0.2,0-0.2c0.3-0.8,0.4-1.6,0.4-2.5v-10.2c-0.9,0.1-3.6-1.9-3.9-2C-213.8,384.1-214.2,384.3-214.4,384.3z M-221.5,385.8
			c0.3,0,0.6-0.1,0.8-0.2c0,0,1.8-0.8,3.5-1.6c-1.5-0.4-2.8-1.4-3.5-2.7c-0.9,0.4-1.5,0.7-1.6,0.7c-1,0.5-1.4,1.6-0.9,2.6
			C-222.9,385.4-222.2,385.8-221.5,385.8z M-202.3,383.8c3,0,5.5-2.4,5.5-5.4s-2.4-5.4-5.5-5.4c-3,0-5.5,2.4-5.5,5.4
			C-207.7,381.4-205.3,383.8-202.3,383.8z M-215.4,383.8c3,0,5.5-2.4,5.5-5.4s-2.4-5.4-5.5-5.4c-3,0-5.5,2.4-5.5,5.4
			S-218.5,383.8-215.4,383.8z M-187.5,384c1.7,0.8,3.5,1.6,3.5,1.6c0.3,0.1,0.6,0.2,0.8,0.2c0.7,0,1.4-0.4,1.8-1.1
			c0.5-1,0-2.1-0.9-2.6c-0.1,0-0.8-0.4-1.7-0.8C-184.8,382.6-186,383.6-187.5,384z M-189.1,383.8c3,0,5.5-2.4,5.5-5.4
			s-2.4-5.4-5.5-5.4c-3,0-5.5,2.4-5.5,5.4S-192.1,383.8-189.1,383.8z M-174.2,379c-1-0.5-2.3-0.1-2.8,1c-0.7,1.4-2.7,4.7-5.1,6.3
			c-0.3,0.2-0.7,0.3-1.1,0.3c-0.3,0-0.7-0.1-1-0.2c0,0-2.2-1-4-1.9l-0.8,0.8l-1.1-1c-0.2,0-0.5-0.1-0.7-0.1c-0.5,0.2-1,0.5-1.6,0.8
			c0-0.2,0-0.5,0-0.7c0.2-0.1,0.5-0.3,0.7-0.4c-1.3-0.6-2.3-1.6-2.9-2.8c-0.3,0.2-0.7,0.4-1,0.6c-0.5-0.3-0.9-0.5-1.3-0.7
			c-0.6,1.3-1.6,2.3-2.9,2.9c1,0.5,3.6,1.9,4.3,2.4c0.2,0.1,0.3,0.2,0.5,0.2v10.1c0,0.9,0.1,1.7,0.4,2.5c0,0.1,0,0.2,0,0.2v2.3l0,0
			v0.1v20c0,1.4,1.1,2.5,2.5,2.5c1.4,0,2.5-1.1,2.5-2.5v-20v-0.1h0.4v0.1v20c0,1.4,1.1,2.5,2.5,2.5l0,0c1.4,0,2.5-1.1,2.5-2.5v-20
			v-0.1l0,0V399c0,0,0.4-0.6,0.4-2.7c0-0.9,0.1-3.9,0.1-5c0.3,0,0.5-0.1,0.8-0.1l0,0l0,0c0.2,0,0.5-0.1,0.7-0.2
			c5.2-1.6,8.6-8.3,9-9.1C-172.7,380.8-173.1,379.5-174.2,379z"/>
	</g>
</g>
</svg>
