<?xml version="1.0" encoding="utf-8"?>
<!-- Generator: Adobe Illustrator 19.1.0, SVG Export Plug-In . SVG Version: 6.00 Build 0)  -->
<svg version="1.1" id="Layer_1" xmlns="http://www.w3.org/2000/svg" xmlns:xlink="http://www.w3.org/1999/xlink" x="0px" y="0px"
	 viewBox="-251 351 92 92" style="enable-background:new -251 351 92 92;" xml:space="preserve">
<style type="text/css">
<!--	.st0{fill:#AFAA5D;}  -->
	.st1{fill:#F4F2E2;}
</style>
<g id="circle">
	<g>
		<circle class="st0" cx="-205" cy="397" r="46"/>
	</g>
</g>
<g id="icon">
	<g>
		<path class="st1" d="M-211.6,383.6c0.9,0.4,1.8,0.5,2.8,0.5c2.2,0,4.3-1,5.8-2.8c1.5-1.8,2.2-4.2,1.9-6.6
			c-0.3-2.3-1.5-4.5-3.3-5.8c-1.8-1.4-4.2-1.8-6.4-1.2c-2.1,0.6-3.9,2.1-4.9,4.2s-1.2,4.7-0.4,7C-215.3,381-213.7,382.8-211.6,383.6
			z M-203.7,427.5L-203.7,427.5L-203.7,427.5L-203.7,427.5z M-189.6,367.4c0.1,0.1,0.2,0.2,0.3,0.2
			C-189.4,367.6-189.5,367.5-189.6,367.4c-0.2-0.1-0.3-0.2-0.3-0.2S-189.8,367.3-189.6,367.4c-1-0.8-2.5-0.5-3.2,0.6
			c0,0-7.2,11.9-9.7,15.1c-1.8,2.4-3.6,3-6.3,2.6c-1.3-0.2-17.5-4.6-17.5-4.6c-1.1-0.3-2.3,0.4-2.7,1.6c-0.4,1.2,0.1,2.5,1.1,3
			c0.1,0.1,0.2,0.1,0.3,0.1l17.6,7c0.1,0.3,1,2.8,1.5,5.5c0.3,1.7,0.4,3.4,0.5,5.1c0.1,1.2,0,2.4,0,3.6c0,1.2,0.2,2.4,0.6,3.6
			c0,1.6-0.1,3.1-0.2,4.7c-0.1,1.7-0.4,3.4-0.6,5.1c-0.3,2.1-0.8,2.9-0.9,3c-0.6,0.3-1.4,0.2-2,0.1c-0.8-0.1-1.6-0.3-2.3-0.5
			c-0.7-0.2-1.3-0.5-2-0.7c-0.5-0.2-1-0.5-1.5-0.7c-0.2-0.1-0.5-0.2-0.7-0.3c-0.3-0.1-0.5-0.1-0.8-0.1c-0.5,0-1.1,0.3-1.5,0.6
			c-0.9,0.7-1.3,2-1,3.2c0.2,0.8,0.7,1.6,1.4,2c2.3,1.3,4.7,2.5,7.2,3.1c1.4,0.3,2.8,0.5,4.2,0.3c1.4-0.2,2.8-0.9,3.9-2
			c0.2-0.3,0.5-0.6,0.7-0.9l0,0c0.1-0.2,0.3-0.4,0.4-0.6c0.2-0.3,0.4-0.7,0.6-1.1c0.3-0.7,0.6-1.5,0.9-2.2c0.5-1.5,0.9-3.1,1.3-4.7
			c0.2-1,0.4-2.1,0.6-3.1c0.4,0,0.8-0.1,1.2-0.1c0.7,1.5,1.3,3.1,1.9,4.7c-1.5,0.6-2.2,2.5-1.6,4c0.4,1.1,0.9,2.1,1.7,2.9
			c0.8,0.9,1.8,1.7,2.9,2c0.6,0.2,1.3,0.2,1.9,0.1c1.3-0.2,2.3-1.3,2.6-2.7c0.5-3.1,0-6.3-0.6-9.4c-0.4-1.7-0.8-3.3-1.3-4.9
			c-0.3-1.1-0.7-2.1-1-3.2c-0.1-0.2-0.1-0.4-0.2-0.6c0.1-0.7,0.1-1.4,0.1-2.1c-0.1-0.7-0.1-1.4-0.2-2.1c-0.2-1.6-0.4-3.3-0.7-4.9
			c-1-3.2-1.8-6.5-3-9.7c-0.3-0.9-0.7-1.7-1.1-2.5l8.2-16.6C-188.4,369.5-188.6,368.1-189.6,367.4z"/>
	</g>
</g>
</svg>
