<?xml version="1.0" encoding="utf-8"?>
<!-- Svg Vector Icons : http://www.onlinewebfonts.com/icon -->
<!DOCTYPE svg PUBLIC "-//W3C//DTD SVG 1.1//EN" "http://www.w3.org/Graphics/SVG/1.1/DTD/svg11.dtd">
<svg version="1.1" xmlns="http://www.w3.org/2000/svg" xmlns:xlink="http://www.w3.org/1999/xlink" x="0px" y="0px" viewBox="0 0 1000 1000" enable-background="new 0 0 1000 1000" xml:space="preserve">
<metadata> Svg Vector Icons : http://www.onlinewebfonts.com/icon </metadata>
<g><path d="M10,118.9h108.9V10C58.7,10,10,58.7,10,118.9z M10,554.4h108.9V445.6H10V554.4z M227.8,990h108.9V881.1H227.8V990z M10,336.7h108.9V227.8H10V336.7z M554.4,10H445.6v108.9h108.9V10z M881.1,10v108.9H990C990,58.7,941.3,10,881.1,10z M118.9,990V881.1H10C10,941.3,58.7,990,118.9,990z M10,772.2h108.9V663.3H10V772.2z M336.7,10H227.8v108.9h108.9V10z M445.6,990h108.9V881.1H445.6V990z M881.1,554.4H990V445.6H881.1V554.4z M881.1,990c60.2,0,108.9-48.7,108.9-108.9H881.1V990z M881.1,336.7H990V227.8H881.1V336.7z M881.1,772.2H990V663.3H881.1V772.2z M663.3,990h108.9V881.1H663.3V990z M663.3,118.9h108.9V10H663.3V118.9z M227.8,772.2h544.4V227.8H227.8V772.2z M336.7,336.7h326.7v326.7H336.7V336.7z"/></g>
</svg>