<?xml version="1.0" encoding="utf-8"?>
<!-- Generator: Adobe Illustrator 19.1.0, SVG Export Plug-In . SVG Version: 6.00 Build 0)  -->
<svg version="1.1" id="Layer_3" xmlns="http://www.w3.org/2000/svg" xmlns:xlink="http://www.w3.org/1999/xlink" x="0px" y="0px"
	 viewBox="-251 351 92 92" style="enable-background:new -251 351 92 92;" xml:space="preserve">
<style type="text/css">
<!--	.st0{fill:#82606E;} -->
	.st1{fill:#F4F2E2;} 
</style>
<g id="circle_1_">
	<g>
		<circle class="st0" cx="-205" cy="397" r="46"/>
	</g>
</g>
<g id="icon_1_">
	<g>
		<path class="st1" d="M-210.8,410.5c-0.8,0-1.5,0.7-1.5,1.5v0.9c0,0.8,0.7,1.5,1.5,1.5h34.5v-3.9h-5H-210.8z M-213.9,386.9
			c4.6,0,8.3-3.7,8.3-8.3s-3.7-8.3-8.3-8.3c-4.6,0-8.3,3.7-8.3,8.3C-222.2,383.1-218.5,386.9-213.9,386.9z M-221.9,397.5l6.5,7.1
			c0.5,0.6,1.3,0.9,2.1,0.9c0.1,0,0.8,0,0.8,0h19c1.8,0,3.3-1.5,3.3-3.3c0-1.8-1.5-3.3-3.3-3.3h-19.1h-0.5v-2.2v-1.9
			c0-4.4-3.6-8-8-8c-0.2,0-0.3,0-0.4,0l0,0c-4.2,0-7.6,3.4-7.6,7.5v21.3h16v-9.1h-0.2l0,0c-1.1,0-2.1-0.5-2.9-1.3l-6.5-7.1
			c-0.2-0.2-0.2-0.6,0-0.8C-222.5,397.3-222.1,397.3-221.9,397.5z M-173.8,387.2c-0.8-0.3-1.6,0.1-1.9,0.9l-6.3,18.4h-22.6
			c-0.8,0-1.5,0.7-1.5,1.5s0.7,1.5,1.5,1.5h23.6c0.5,0,1-0.3,1.2-0.6c0.1-0.1,0.2-0.3,0.2-0.4l6.6-19.3
			C-172.7,388.3-173.1,387.4-173.8,387.2z"/>
	</g>
</g>
</svg>
